<svg width="1535" height="1034" xmlns="http://www.w3.org/2000/svg" xmlns:xlink="http://www.w3.org/1999/xlink" overflow="hidden"><defs><clipPath id="clip0"><rect x="1433" y="651" width="1535" height="1034"/></clipPath></defs><g clip-path="url(#clip0)" transform="translate(-1433 -651)"><path d="M1753 1676 2200 799 2647 1676Z" stroke="#000000" stroke-width="13.75" stroke-miterlimit="8" fill-rule="evenodd"/><path d="M2316.88 1426.56 2876.15 1016.67 2653.93 1673.49Z" stroke="#000000" stroke-width="13.75" stroke-miterlimit="8" fill-rule="evenodd"/><path d="M0 661.178 208.915 0 417.83 661.178Z" stroke="#000000" stroke-width="13.75" stroke-miterlimit="8" fill-rule="evenodd" transform="matrix(-0.806684 0.590983 0.590983 0.806684 1692.38 893.201)"/><path d="M1435.5 1033C1435.5 967.002 1488.78 913.5 1554.5 913.5 1620.22 913.5 1673.5 967.002 1673.5 1033 1673.5 1099 1620.22 1152.5 1554.5 1152.5 1488.78 1152.5 1435.5 1099 1435.5 1033Z" stroke="#000000" stroke-width="4.58333" stroke-miterlimit="8" fill-rule="evenodd"/><path d="M2727.5 1033C2727.5 967.002 2780.78 913.5 2846.5 913.5 2912.22 913.5 2965.5 967.002 2965.5 1033 2965.5 1099 2912.22 1152.5 2846.5 1152.5 2780.78 1152.5 2727.5 1099 2727.5 1033Z" stroke="#000000" stroke-width="4.58333" stroke-miterlimit="8" fill-rule="evenodd"/><path d="M2079.5 772.5C2079.5 706.778 2132.78 653.5 2198.5 653.5 2264.22 653.5 2317.5 706.778 2317.5 772.5 2317.5 838.222 2264.22 891.5 2198.5 891.5 2132.78 891.5 2079.5 838.222 2079.5 772.5Z" stroke="#000000" stroke-width="4.58333" stroke-miterlimit="8" fill-rule="evenodd"/></g></svg>